<mxfile host="app.diagrams.net" agent="Mozilla/5.0 (Windows NT 10.0; Win64; x64) AppleWebKit/537.36 (KHTML, like Gecko) Chrome/109.0.0.0 Safari/537.36" version="25.0.1">
  <diagram name="Halaman-1" id="sQ41wep3_2fcKu83onop">
    <mxGraphModel dx="880" dy="527" grid="1" gridSize="10" guides="1" tooltips="1" connect="1" arrows="1" fold="1" page="1" pageScale="1" pageWidth="827" pageHeight="1169" math="0" shadow="0">
      <root>
        <mxCell id="0" />
        <mxCell id="1" parent="0" />
        <mxCell id="IIk64PeaFXEYmDNorfwS-2" value="Autentikasi" style="swimlane;fontStyle=0;childLayout=stackLayout;horizontal=1;startSize=30;horizontalStack=0;resizeParent=1;resizeParentMax=0;resizeLast=0;collapsible=1;marginBottom=0;whiteSpace=wrap;html=1;" vertex="1" parent="1">
          <mxGeometry width="320" height="190" as="geometry" />
        </mxCell>
        <mxCell id="IIk64PeaFXEYmDNorfwS-3" value="&lt;strong&gt;Method&lt;/strong&gt;: &lt;code&gt;POST&lt;/code&gt;" style="text;strokeColor=none;fillColor=none;align=left;verticalAlign=middle;spacingLeft=4;spacingRight=4;overflow=hidden;points=[[0,0.5],[1,0.5]];portConstraint=eastwest;rotatable=0;whiteSpace=wrap;html=1;" vertex="1" parent="IIk64PeaFXEYmDNorfwS-2">
          <mxGeometry y="30" width="320" height="20" as="geometry" />
        </mxCell>
        <mxCell id="IIk64PeaFXEYmDNorfwS-4" value="&lt;strong&gt;Endpoint&lt;/strong&gt;: &lt;code&gt;/api/auth/login&lt;/code&gt;" style="text;strokeColor=none;fillColor=none;align=left;verticalAlign=middle;spacingLeft=4;spacingRight=4;overflow=hidden;points=[[0,0.5],[1,0.5]];portConstraint=eastwest;rotatable=0;whiteSpace=wrap;html=1;" vertex="1" parent="IIk64PeaFXEYmDNorfwS-2">
          <mxGeometry y="50" width="320" height="20" as="geometry" />
        </mxCell>
        <mxCell id="IIk64PeaFXEYmDNorfwS-6" value="&lt;b&gt;Body:&amp;nbsp;&lt;/b&gt;&lt;span style=&quot;background-color: initial;&quot;&gt;{&lt;/span&gt;&lt;div&gt;  &lt;span class=&quot;hljs-attr&quot;&gt;&quot;username&quot;&lt;/span&gt;&lt;span class=&quot;hljs-punctuation&quot;&gt;:&lt;/span&gt; &lt;span class=&quot;hljs-string&quot;&gt;&quot;string&quot;&lt;/span&gt;&lt;span class=&quot;hljs-punctuation&quot;&gt;,&lt;/span&gt;&lt;br&gt;  &lt;span class=&quot;hljs-attr&quot;&gt;&quot;password&quot;&lt;/span&gt;&lt;span class=&quot;hljs-punctuation&quot;&gt;:&lt;/span&gt; &lt;span class=&quot;hljs-string&quot;&gt;&quot;string&quot;&lt;/span&gt;&lt;br&gt;&lt;span class=&quot;hljs-punctuation&quot;&gt;}&lt;/span&gt;&amp;nbsp;&lt;/div&gt;" style="text;strokeColor=none;fillColor=none;align=left;verticalAlign=middle;spacingLeft=4;spacingRight=4;overflow=hidden;points=[[0,0.5],[1,0.5]];portConstraint=eastwest;rotatable=0;whiteSpace=wrap;html=1;" vertex="1" parent="IIk64PeaFXEYmDNorfwS-2">
          <mxGeometry y="70" width="320" height="60" as="geometry" />
        </mxCell>
        <mxCell id="IIk64PeaFXEYmDNorfwS-5" value="&lt;span class=&quot;hljs-punctuation&quot;&gt;&lt;b&gt;Response:&lt;/b&gt;&lt;/span&gt;&lt;span class=&quot;hljs-punctuation&quot;&gt;{&lt;/span&gt;&lt;br&gt;  &lt;span class=&quot;hljs-attr&quot;&gt;&quot;token&quot;&lt;/span&gt;&lt;span class=&quot;hljs-punctuation&quot;&gt;:&lt;/span&gt; &lt;span class=&quot;hljs-string&quot;&gt;&quot;string&quot;&lt;/span&gt;&lt;span class=&quot;hljs-punctuation&quot;&gt;,&lt;/span&gt;&lt;br&gt;  &lt;span class=&quot;hljs-attr&quot;&gt;&quot;userId&quot;&lt;/span&gt;&lt;span class=&quot;hljs-punctuation&quot;&gt;:&lt;/span&gt; &lt;span class=&quot;hljs-string&quot;&gt;&quot;integer&quot;&lt;/span&gt;&lt;br&gt;&lt;span class=&quot;hljs-punctuation&quot;&gt;}&lt;/span&gt;" style="text;strokeColor=none;fillColor=none;align=left;verticalAlign=middle;spacingLeft=4;spacingRight=4;overflow=hidden;points=[[0,0.5],[1,0.5]];portConstraint=eastwest;rotatable=0;whiteSpace=wrap;html=1;" vertex="1" parent="IIk64PeaFXEYmDNorfwS-2">
          <mxGeometry y="130" width="320" height="60" as="geometry" />
        </mxCell>
        <mxCell id="IIk64PeaFXEYmDNorfwS-7" value="Logout" style="swimlane;fontStyle=0;childLayout=stackLayout;horizontal=1;startSize=30;horizontalStack=0;resizeParent=1;resizeParentMax=0;resizeLast=0;collapsible=1;marginBottom=0;whiteSpace=wrap;html=1;" vertex="1" parent="1">
          <mxGeometry x="400" width="320" height="150" as="geometry" />
        </mxCell>
        <mxCell id="IIk64PeaFXEYmDNorfwS-8" value="&lt;strong&gt;Method&lt;/strong&gt;: &lt;code&gt;POST&lt;/code&gt;" style="text;strokeColor=none;fillColor=none;align=left;verticalAlign=middle;spacingLeft=4;spacingRight=4;overflow=hidden;points=[[0,0.5],[1,0.5]];portConstraint=eastwest;rotatable=0;whiteSpace=wrap;html=1;" vertex="1" parent="IIk64PeaFXEYmDNorfwS-7">
          <mxGeometry y="30" width="320" height="20" as="geometry" />
        </mxCell>
        <mxCell id="IIk64PeaFXEYmDNorfwS-9" value="&lt;strong&gt;Endpoint&lt;/strong&gt;: &lt;code&gt;/api/auth/logout&lt;/code&gt;" style="text;strokeColor=none;fillColor=none;align=left;verticalAlign=middle;spacingLeft=4;spacingRight=4;overflow=hidden;points=[[0,0.5],[1,0.5]];portConstraint=eastwest;rotatable=0;whiteSpace=wrap;html=1;" vertex="1" parent="IIk64PeaFXEYmDNorfwS-7">
          <mxGeometry y="50" width="320" height="20" as="geometry" />
        </mxCell>
        <mxCell id="IIk64PeaFXEYmDNorfwS-10" value="&lt;div&gt;&lt;span class=&quot;hljs-attr&quot;&gt;&lt;b&gt;Headers:&lt;/b&gt;&amp;nbsp;{ &quot;Authorization&quot;: &quot;Bearer &amp;lt;token&amp;gt;&quot; }&lt;/span&gt;&amp;nbsp;&lt;/div&gt;" style="text;strokeColor=none;fillColor=none;align=left;verticalAlign=middle;spacingLeft=4;spacingRight=4;overflow=hidden;points=[[0,0.5],[1,0.5]];portConstraint=eastwest;rotatable=0;whiteSpace=wrap;html=1;" vertex="1" parent="IIk64PeaFXEYmDNorfwS-7">
          <mxGeometry y="70" width="320" height="20" as="geometry" />
        </mxCell>
        <mxCell id="IIk64PeaFXEYmDNorfwS-11" value="&lt;span class=&quot;hljs-punctuation&quot;&gt;&lt;b&gt;Response:&lt;/b&gt;&lt;/span&gt;&lt;span class=&quot;hljs-punctuation&quot;&gt;{&lt;/span&gt;&lt;br&gt;  &lt;span class=&quot;hljs-attr&quot;&gt;&quot;message&quot;&lt;/span&gt;&lt;span class=&quot;hljs-punctuation&quot;&gt;:&lt;/span&gt; &lt;span class=&quot;hljs-string&quot;&gt;&quot;Logout successful&quot;&lt;/span&gt;&lt;br&gt;&lt;span class=&quot;hljs-punctuation&quot;&gt;}&lt;/span&gt;" style="text;strokeColor=none;fillColor=none;align=left;verticalAlign=middle;spacingLeft=4;spacingRight=4;overflow=hidden;points=[[0,0.5],[1,0.5]];portConstraint=eastwest;rotatable=0;whiteSpace=wrap;html=1;" vertex="1" parent="IIk64PeaFXEYmDNorfwS-7">
          <mxGeometry y="90" width="320" height="60" as="geometry" />
        </mxCell>
        <mxCell id="IIk64PeaFXEYmDNorfwS-12" value="Barang Masuk" style="swimlane;fontStyle=0;childLayout=stackLayout;horizontal=1;startSize=30;horizontalStack=0;resizeParent=1;resizeParentMax=0;resizeLast=0;collapsible=1;marginBottom=0;whiteSpace=wrap;html=1;" vertex="1" parent="1">
          <mxGeometry y="240" width="320" height="270" as="geometry" />
        </mxCell>
        <mxCell id="IIk64PeaFXEYmDNorfwS-13" value="&lt;strong&gt;Method&lt;/strong&gt;: &lt;code&gt;POST&lt;/code&gt;" style="text;strokeColor=none;fillColor=none;align=left;verticalAlign=middle;spacingLeft=4;spacingRight=4;overflow=hidden;points=[[0,0.5],[1,0.5]];portConstraint=eastwest;rotatable=0;whiteSpace=wrap;html=1;" vertex="1" parent="IIk64PeaFXEYmDNorfwS-12">
          <mxGeometry y="30" width="320" height="20" as="geometry" />
        </mxCell>
        <mxCell id="IIk64PeaFXEYmDNorfwS-14" value="&lt;strong&gt;Endpoint&lt;/strong&gt;: &lt;code&gt;/api/barang/masuk&lt;/code&gt;" style="text;strokeColor=none;fillColor=none;align=left;verticalAlign=middle;spacingLeft=4;spacingRight=4;overflow=hidden;points=[[0,0.5],[1,0.5]];portConstraint=eastwest;rotatable=0;whiteSpace=wrap;html=1;" vertex="1" parent="IIk64PeaFXEYmDNorfwS-12">
          <mxGeometry y="50" width="320" height="20" as="geometry" />
        </mxCell>
        <mxCell id="IIk64PeaFXEYmDNorfwS-15" value="&lt;div&gt;&lt;span class=&quot;hljs-attr&quot;&gt;&lt;b&gt;Headers:&amp;nbsp;&lt;/b&gt;&lt;/span&gt;&lt;span style=&quot;background-color: initial;&quot;&gt;{ &quot;Authorization&quot;: &quot;Bearer &amp;lt;token&amp;gt;&quot; }&lt;/span&gt;&lt;/div&gt;" style="text;strokeColor=none;fillColor=none;align=left;verticalAlign=middle;spacingLeft=4;spacingRight=4;overflow=hidden;points=[[0,0.5],[1,0.5]];portConstraint=eastwest;rotatable=0;whiteSpace=wrap;html=1;" vertex="1" parent="IIk64PeaFXEYmDNorfwS-12">
          <mxGeometry y="70" width="320" height="20" as="geometry" />
        </mxCell>
        <mxCell id="IIk64PeaFXEYmDNorfwS-22" value="&lt;span class=&quot;hljs-punctuation&quot;&gt;&lt;b&gt;Body :&amp;nbsp;&lt;/b&gt;&lt;/span&gt;&lt;span class=&quot;hljs-punctuation&quot;&gt;{&lt;/span&gt;&lt;br&gt;  &lt;span class=&quot;hljs-attr&quot;&gt;&quot;namaBarang&quot;&lt;/span&gt;&lt;span class=&quot;hljs-punctuation&quot;&gt;:&lt;/span&gt; &lt;span class=&quot;hljs-string&quot;&gt;&quot;string&quot;&lt;/span&gt;&lt;span class=&quot;hljs-punctuation&quot;&gt;,&lt;/span&gt;&lt;br&gt;  &lt;span class=&quot;hljs-attr&quot;&gt;&quot;jumlah&quot;&lt;/span&gt;&lt;span class=&quot;hljs-punctuation&quot;&gt;:&lt;/span&gt; &lt;span class=&quot;hljs-string&quot;&gt;&quot;integer&quot;&lt;/span&gt;&lt;span class=&quot;hljs-punctuation&quot;&gt;,&lt;/span&gt;&lt;br&gt;  &lt;span class=&quot;hljs-attr&quot;&gt;&quot;pemasok&quot;&lt;/span&gt;&lt;span class=&quot;hljs-punctuation&quot;&gt;:&lt;/span&gt; &lt;span class=&quot;hljs-string&quot;&gt;&quot;string&quot;&lt;/span&gt;&lt;span class=&quot;hljs-punctuation&quot;&gt;,&lt;/span&gt;&lt;br&gt;  &lt;span class=&quot;hljs-attr&quot;&gt;&quot;tanggalMasuk&quot;&lt;/span&gt;&lt;span class=&quot;hljs-punctuation&quot;&gt;:&lt;/span&gt; &lt;span class=&quot;hljs-string&quot;&gt;&quot;string&quot;&lt;/span&gt;&lt;br&gt;&lt;span class=&quot;hljs-punctuation&quot;&gt;}&lt;/span&gt;" style="text;strokeColor=none;fillColor=none;align=left;verticalAlign=middle;spacingLeft=4;spacingRight=4;overflow=hidden;points=[[0,0.5],[1,0.5]];portConstraint=eastwest;rotatable=0;whiteSpace=wrap;html=1;" vertex="1" parent="IIk64PeaFXEYmDNorfwS-12">
          <mxGeometry y="90" width="320" height="90" as="geometry" />
        </mxCell>
        <mxCell id="IIk64PeaFXEYmDNorfwS-16" value="&lt;span class=&quot;hljs-punctuation&quot;&gt;&lt;b&gt;Response :&amp;nbsp;&lt;/b&gt;&lt;/span&gt;&lt;span class=&quot;hljs-punctuation&quot;&gt;{&lt;/span&gt;&lt;br&gt;  &lt;span class=&quot;hljs-attr&quot;&gt;&quot;message&quot;&lt;/span&gt;&lt;span class=&quot;hljs-punctuation&quot;&gt;:&lt;/span&gt; &lt;span class=&quot;hljs-string&quot;&gt;&quot;Barang masuk berhasil dicatat&quot;&lt;/span&gt;&lt;span class=&quot;hljs-punctuation&quot;&gt;,&lt;/span&gt;&lt;br&gt;  &lt;span class=&quot;hljs-attr&quot;&gt;&quot;data&quot;&lt;/span&gt;&lt;span class=&quot;hljs-punctuation&quot;&gt;:&lt;/span&gt; &lt;span class=&quot;hljs-punctuation&quot;&gt;{&lt;/span&gt;&lt;br&gt;    &lt;span class=&quot;hljs-attr&quot;&gt;&quot;id&quot;&lt;/span&gt;&lt;span class=&quot;hljs-punctuation&quot;&gt;:&lt;/span&gt; &lt;span class=&quot;hljs-string&quot;&gt;&quot;integer&quot;&lt;/span&gt;&lt;span class=&quot;hljs-punctuation&quot;&gt;,&lt;/span&gt;&lt;br&gt;    &lt;span class=&quot;hljs-attr&quot;&gt;&quot;namaBarang&quot;&lt;/span&gt;&lt;span class=&quot;hljs-punctuation&quot;&gt;:&lt;/span&gt; &lt;span class=&quot;hljs-string&quot;&gt;&quot;string&quot;&lt;/span&gt;&lt;span class=&quot;hljs-punctuation&quot;&gt;,&lt;/span&gt;&lt;br&gt;    &lt;span class=&quot;hljs-attr&quot;&gt;&quot;jumlah&quot;&lt;/span&gt;&lt;span class=&quot;hljs-punctuation&quot;&gt;:&lt;/span&gt; &lt;span class=&quot;hljs-string&quot;&gt;&quot;integer&quot;&lt;/span&gt;&lt;span class=&quot;hljs-punctuation&quot;&gt;,&lt;/span&gt;&lt;br&gt;    &lt;span class=&quot;hljs-attr&quot;&gt;&quot;tanggalMasuk&quot;&lt;/span&gt;&lt;span class=&quot;hljs-punctuation&quot;&gt;:&lt;/span&gt; &lt;span class=&quot;hljs-string&quot;&gt;&quot;string&quot;&lt;/span&gt;&lt;br&gt;  &lt;span class=&quot;hljs-punctuation&quot;&gt;}&lt;/span&gt;" style="text;strokeColor=none;fillColor=none;align=left;verticalAlign=middle;spacingLeft=4;spacingRight=4;overflow=hidden;points=[[0,0.5],[1,0.5]];portConstraint=eastwest;rotatable=0;whiteSpace=wrap;html=1;" vertex="1" parent="IIk64PeaFXEYmDNorfwS-12">
          <mxGeometry y="180" width="320" height="90" as="geometry" />
        </mxCell>
        <mxCell id="IIk64PeaFXEYmDNorfwS-17" value="Get Barang Masuk" style="swimlane;fontStyle=0;childLayout=stackLayout;horizontal=1;startSize=30;horizontalStack=0;resizeParent=1;resizeParentMax=0;resizeLast=0;collapsible=1;marginBottom=0;whiteSpace=wrap;html=1;" vertex="1" parent="1">
          <mxGeometry x="400" y="200" width="320" height="240" as="geometry" />
        </mxCell>
        <mxCell id="IIk64PeaFXEYmDNorfwS-18" value="&lt;strong&gt;Method&lt;/strong&gt;: &lt;code&gt;GET&lt;/code&gt;" style="text;strokeColor=none;fillColor=none;align=left;verticalAlign=middle;spacingLeft=4;spacingRight=4;overflow=hidden;points=[[0,0.5],[1,0.5]];portConstraint=eastwest;rotatable=0;whiteSpace=wrap;html=1;" vertex="1" parent="IIk64PeaFXEYmDNorfwS-17">
          <mxGeometry y="30" width="320" height="20" as="geometry" />
        </mxCell>
        <mxCell id="IIk64PeaFXEYmDNorfwS-19" value="&lt;strong&gt;Endpoint&lt;/strong&gt;: &lt;code&gt;/api/barang/masuk&lt;/code&gt;" style="text;strokeColor=none;fillColor=none;align=left;verticalAlign=middle;spacingLeft=4;spacingRight=4;overflow=hidden;points=[[0,0.5],[1,0.5]];portConstraint=eastwest;rotatable=0;whiteSpace=wrap;html=1;" vertex="1" parent="IIk64PeaFXEYmDNorfwS-17">
          <mxGeometry y="50" width="320" height="20" as="geometry" />
        </mxCell>
        <mxCell id="IIk64PeaFXEYmDNorfwS-21" value="&lt;span class=&quot;hljs-punctuation&quot;&gt;&lt;b&gt;Response :&amp;nbsp;&lt;/b&gt;&lt;/span&gt;&lt;span class=&quot;hljs-punctuation&quot;&gt;{&lt;/span&gt;&lt;br&gt;  &lt;span class=&quot;hljs-attr&quot;&gt;&quot;data&quot;&lt;/span&gt;&lt;span class=&quot;hljs-punctuation&quot;&gt;:&lt;/span&gt; &lt;span class=&quot;hljs-punctuation&quot;&gt;[&lt;/span&gt;&lt;br&gt;    &lt;span class=&quot;hljs-punctuation&quot;&gt;{&lt;/span&gt;&lt;br&gt;      &lt;span class=&quot;hljs-attr&quot;&gt;&quot;id&quot;&lt;/span&gt;&lt;span class=&quot;hljs-punctuation&quot;&gt;:&lt;/span&gt; &lt;span class=&quot;hljs-string&quot;&gt;&quot;integer&quot;&lt;/span&gt;&lt;span class=&quot;hljs-punctuation&quot;&gt;,&lt;/span&gt;&lt;br&gt;      &lt;span class=&quot;hljs-attr&quot;&gt;&quot;namaBarang&quot;&lt;/span&gt;&lt;span class=&quot;hljs-punctuation&quot;&gt;:&lt;/span&gt; &lt;span class=&quot;hljs-string&quot;&gt;&quot;string&quot;&lt;/span&gt;&lt;span class=&quot;hljs-punctuation&quot;&gt;,&lt;/span&gt;&lt;br&gt;      &lt;span class=&quot;hljs-attr&quot;&gt;&quot;jumlah&quot;&lt;/span&gt;&lt;span class=&quot;hljs-punctuation&quot;&gt;:&lt;/span&gt; &lt;span class=&quot;hljs-string&quot;&gt;&quot;integer&quot;&lt;/span&gt;&lt;span class=&quot;hljs-punctuation&quot;&gt;,&lt;/span&gt;&lt;br&gt;      &lt;span class=&quot;hljs-attr&quot;&gt;&quot;pemasok&quot;&lt;/span&gt;&lt;span class=&quot;hljs-punctuation&quot;&gt;:&lt;/span&gt; &lt;span class=&quot;hljs-string&quot;&gt;&quot;string&quot;&lt;/span&gt;&lt;span class=&quot;hljs-punctuation&quot;&gt;,&lt;/span&gt;&lt;br&gt;      &lt;span class=&quot;hljs-attr&quot;&gt;&quot;tanggalMasuk&quot;&lt;/span&gt;&lt;span class=&quot;hljs-punctuation&quot;&gt;:&lt;/span&gt; &lt;span class=&quot;hljs-string&quot;&gt;&quot;string&quot;&lt;/span&gt;&lt;br&gt;    &lt;span class=&quot;hljs-punctuation&quot;&gt;}&lt;/span&gt;&lt;br&gt;  &lt;span class=&quot;hljs-punctuation&quot;&gt;]&lt;/span&gt;&lt;br&gt;&lt;span class=&quot;hljs-punctuation&quot;&gt;}&lt;/span&gt;" style="text;strokeColor=none;fillColor=none;align=left;verticalAlign=middle;spacingLeft=4;spacingRight=4;overflow=hidden;points=[[0,0.5],[1,0.5]];portConstraint=eastwest;rotatable=0;whiteSpace=wrap;html=1;" vertex="1" parent="IIk64PeaFXEYmDNorfwS-17">
          <mxGeometry y="70" width="320" height="170" as="geometry" />
        </mxCell>
        <mxCell id="IIk64PeaFXEYmDNorfwS-23" value="Tambah Barang Keluar" style="swimlane;fontStyle=0;childLayout=stackLayout;horizontal=1;startSize=30;horizontalStack=0;resizeParent=1;resizeParentMax=0;resizeLast=0;collapsible=1;marginBottom=0;whiteSpace=wrap;html=1;" vertex="1" parent="1">
          <mxGeometry y="560" width="320" height="330" as="geometry" />
        </mxCell>
        <mxCell id="IIk64PeaFXEYmDNorfwS-24" value="&lt;strong&gt;Method&lt;/strong&gt;: &lt;code&gt;POST&lt;/code&gt;" style="text;strokeColor=none;fillColor=none;align=left;verticalAlign=middle;spacingLeft=4;spacingRight=4;overflow=hidden;points=[[0,0.5],[1,0.5]];portConstraint=eastwest;rotatable=0;whiteSpace=wrap;html=1;" vertex="1" parent="IIk64PeaFXEYmDNorfwS-23">
          <mxGeometry y="30" width="320" height="20" as="geometry" />
        </mxCell>
        <mxCell id="IIk64PeaFXEYmDNorfwS-25" value="&lt;strong&gt;Endpoint&lt;/strong&gt;: &lt;code&gt;/api/barang/keluar&lt;/code&gt;" style="text;strokeColor=none;fillColor=none;align=left;verticalAlign=middle;spacingLeft=4;spacingRight=4;overflow=hidden;points=[[0,0.5],[1,0.5]];portConstraint=eastwest;rotatable=0;whiteSpace=wrap;html=1;" vertex="1" parent="IIk64PeaFXEYmDNorfwS-23">
          <mxGeometry y="50" width="320" height="20" as="geometry" />
        </mxCell>
        <mxCell id="IIk64PeaFXEYmDNorfwS-27" value="&lt;strong&gt;Headers&lt;/strong&gt;: &lt;code&gt;{ &quot;Authorization&quot;: &quot;Bearer &amp;lt;token&amp;gt;&quot; }&lt;/code&gt;" style="text;strokeColor=none;fillColor=none;align=left;verticalAlign=middle;spacingLeft=4;spacingRight=4;overflow=hidden;points=[[0,0.5],[1,0.5]];portConstraint=eastwest;rotatable=0;whiteSpace=wrap;html=1;" vertex="1" parent="IIk64PeaFXEYmDNorfwS-23">
          <mxGeometry y="70" width="320" height="20" as="geometry" />
        </mxCell>
        <mxCell id="IIk64PeaFXEYmDNorfwS-28" value="&lt;b&gt;Body:&amp;nbsp;&lt;/b&gt;&lt;span class=&quot;hljs-punctuation&quot;&gt;{&lt;/span&gt;&lt;br/&gt;  &lt;span class=&quot;hljs-attr&quot;&gt;&quot;namaBarang&quot;&lt;/span&gt;&lt;span class=&quot;hljs-punctuation&quot;&gt;:&lt;/span&gt; &lt;span class=&quot;hljs-string&quot;&gt;&quot;string&quot;&lt;/span&gt;&lt;span class=&quot;hljs-punctuation&quot;&gt;,&lt;/span&gt;&lt;br/&gt;  &lt;span class=&quot;hljs-attr&quot;&gt;&quot;jumlah&quot;&lt;/span&gt;&lt;span class=&quot;hljs-punctuation&quot;&gt;:&lt;/span&gt; &lt;span class=&quot;hljs-string&quot;&gt;&quot;integer&quot;&lt;/span&gt;&lt;span class=&quot;hljs-punctuation&quot;&gt;,&lt;/span&gt;&lt;br/&gt;  &lt;span class=&quot;hljs-attr&quot;&gt;&quot;tujuan&quot;&lt;/span&gt;&lt;span class=&quot;hljs-punctuation&quot;&gt;:&lt;/span&gt; &lt;span class=&quot;hljs-string&quot;&gt;&quot;string&quot;&lt;/span&gt;&lt;span class=&quot;hljs-punctuation&quot;&gt;,&lt;/span&gt;&lt;br/&gt;  &lt;span class=&quot;hljs-attr&quot;&gt;&quot;tanggalKeluar&quot;&lt;/span&gt;&lt;span class=&quot;hljs-punctuation&quot;&gt;:&lt;/span&gt; &lt;span class=&quot;hljs-string&quot;&gt;&quot;string&quot;&lt;/span&gt;&lt;br/&gt;&lt;span class=&quot;hljs-punctuation&quot;&gt;}&lt;/span&gt;" style="text;strokeColor=none;fillColor=none;align=left;verticalAlign=middle;spacingLeft=4;spacingRight=4;overflow=hidden;points=[[0,0.5],[1,0.5]];portConstraint=eastwest;rotatable=0;whiteSpace=wrap;html=1;" vertex="1" parent="IIk64PeaFXEYmDNorfwS-23">
          <mxGeometry y="90" width="320" height="90" as="geometry" />
        </mxCell>
        <mxCell id="IIk64PeaFXEYmDNorfwS-26" value="&lt;span class=&quot;hljs-punctuation&quot;&gt;&lt;b&gt;Response :&amp;nbsp;&lt;/b&gt;&lt;/span&gt;&lt;span class=&quot;hljs-punctuation&quot;&gt;{&lt;/span&gt;&lt;br&gt;  &lt;span class=&quot;hljs-attr&quot;&gt;&quot;message&quot;&lt;/span&gt;&lt;span class=&quot;hljs-punctuation&quot;&gt;:&lt;/span&gt; &lt;span class=&quot;hljs-string&quot;&gt;&quot;Barang keluar berhasil dicatat&quot;&lt;/span&gt;&lt;span class=&quot;hljs-punctuation&quot;&gt;,&lt;/span&gt;&lt;br&gt;  &lt;span class=&quot;hljs-attr&quot;&gt;&quot;data&quot;&lt;/span&gt;&lt;span class=&quot;hljs-punctuation&quot;&gt;:&lt;/span&gt; &lt;span class=&quot;hljs-punctuation&quot;&gt;{&lt;/span&gt;&lt;br&gt;    &lt;span class=&quot;hljs-attr&quot;&gt;&quot;id&quot;&lt;/span&gt;&lt;span class=&quot;hljs-punctuation&quot;&gt;:&lt;/span&gt; &lt;span class=&quot;hljs-string&quot;&gt;&quot;integer&quot;&lt;/span&gt;&lt;span class=&quot;hljs-punctuation&quot;&gt;,&lt;/span&gt;&lt;br&gt;    &lt;span class=&quot;hljs-attr&quot;&gt;&quot;namaBarang&quot;&lt;/span&gt;&lt;span class=&quot;hljs-punctuation&quot;&gt;:&lt;/span&gt; &lt;span class=&quot;hljs-string&quot;&gt;&quot;string&quot;&lt;/span&gt;&lt;span class=&quot;hljs-punctuation&quot;&gt;,&lt;/span&gt;&lt;br&gt;    &lt;span class=&quot;hljs-attr&quot;&gt;&quot;jumlah&quot;&lt;/span&gt;&lt;span class=&quot;hljs-punctuation&quot;&gt;:&lt;/span&gt; &lt;span class=&quot;hljs-string&quot;&gt;&quot;integer&quot;&lt;/span&gt;&lt;span class=&quot;hljs-punctuation&quot;&gt;,&lt;/span&gt;&lt;br&gt;    &lt;span class=&quot;hljs-attr&quot;&gt;&quot;tujuan&quot;&lt;/span&gt;&lt;span class=&quot;hljs-punctuation&quot;&gt;:&lt;/span&gt; &lt;span class=&quot;hljs-string&quot;&gt;&quot;string&quot;&lt;/span&gt;&lt;span class=&quot;hljs-punctuation&quot;&gt;,&lt;/span&gt;&lt;br&gt;    &lt;span class=&quot;hljs-attr&quot;&gt;&quot;tanggalKeluar&quot;&lt;/span&gt;&lt;span class=&quot;hljs-punctuation&quot;&gt;:&lt;/span&gt; &lt;span class=&quot;hljs-string&quot;&gt;&quot;string&quot;&lt;/span&gt;&lt;br&gt;  &lt;span class=&quot;hljs-punctuation&quot;&gt;}&lt;/span&gt;&lt;br&gt;&lt;span class=&quot;hljs-punctuation&quot;&gt;}&lt;/span&gt;" style="text;strokeColor=none;fillColor=none;align=left;verticalAlign=middle;spacingLeft=4;spacingRight=4;overflow=hidden;points=[[0,0.5],[1,0.5]];portConstraint=eastwest;rotatable=0;whiteSpace=wrap;html=1;" vertex="1" parent="IIk64PeaFXEYmDNorfwS-23">
          <mxGeometry y="180" width="320" height="150" as="geometry" />
        </mxCell>
        <mxCell id="IIk64PeaFXEYmDNorfwS-29" value="Get Barang Keluar" style="swimlane;fontStyle=0;childLayout=stackLayout;horizontal=1;startSize=30;horizontalStack=0;resizeParent=1;resizeParentMax=0;resizeLast=0;collapsible=1;marginBottom=0;whiteSpace=wrap;html=1;" vertex="1" parent="1">
          <mxGeometry x="400" y="560" width="320" height="240" as="geometry" />
        </mxCell>
        <mxCell id="IIk64PeaFXEYmDNorfwS-30" value="&lt;strong&gt;Method&lt;/strong&gt;: &lt;code&gt;GET&lt;/code&gt;" style="text;strokeColor=none;fillColor=none;align=left;verticalAlign=middle;spacingLeft=4;spacingRight=4;overflow=hidden;points=[[0,0.5],[1,0.5]];portConstraint=eastwest;rotatable=0;whiteSpace=wrap;html=1;" vertex="1" parent="IIk64PeaFXEYmDNorfwS-29">
          <mxGeometry y="30" width="320" height="20" as="geometry" />
        </mxCell>
        <mxCell id="IIk64PeaFXEYmDNorfwS-31" value="&lt;strong&gt;Endpoint&lt;/strong&gt;: &lt;code&gt;/api/barang/keluar&lt;/code&gt;" style="text;strokeColor=none;fillColor=none;align=left;verticalAlign=middle;spacingLeft=4;spacingRight=4;overflow=hidden;points=[[0,0.5],[1,0.5]];portConstraint=eastwest;rotatable=0;whiteSpace=wrap;html=1;" vertex="1" parent="IIk64PeaFXEYmDNorfwS-29">
          <mxGeometry y="50" width="320" height="20" as="geometry" />
        </mxCell>
        <mxCell id="IIk64PeaFXEYmDNorfwS-32" value="&lt;strong&gt;Headers&lt;/strong&gt;: &lt;code&gt;{ &quot;Authorization&quot;: &quot;Bearer &amp;lt;token&amp;gt;&quot; }&lt;/code&gt;" style="text;strokeColor=none;fillColor=none;align=left;verticalAlign=middle;spacingLeft=4;spacingRight=4;overflow=hidden;points=[[0,0.5],[1,0.5]];portConstraint=eastwest;rotatable=0;whiteSpace=wrap;html=1;" vertex="1" parent="IIk64PeaFXEYmDNorfwS-29">
          <mxGeometry y="70" width="320" height="20" as="geometry" />
        </mxCell>
        <mxCell id="IIk64PeaFXEYmDNorfwS-34" value="&lt;span class=&quot;hljs-punctuation&quot;&gt;&lt;b&gt;Response :&lt;/b&gt;&lt;/span&gt;&lt;span class=&quot;hljs-punctuation&quot;&gt;{&lt;/span&gt;&lt;br&gt;  &lt;span class=&quot;hljs-attr&quot;&gt;&quot;data&quot;&lt;/span&gt;&lt;span class=&quot;hljs-punctuation&quot;&gt;:&lt;/span&gt; &lt;span class=&quot;hljs-punctuation&quot;&gt;[&lt;/span&gt;&lt;br&gt;    &lt;span class=&quot;hljs-punctuation&quot;&gt;{&lt;/span&gt;&lt;br&gt;      &lt;span class=&quot;hljs-attr&quot;&gt;&quot;id&quot;&lt;/span&gt;&lt;span class=&quot;hljs-punctuation&quot;&gt;:&lt;/span&gt; &lt;span class=&quot;hljs-string&quot;&gt;&quot;integer&quot;&lt;/span&gt;&lt;span class=&quot;hljs-punctuation&quot;&gt;,&lt;/span&gt;&lt;br&gt;      &lt;span class=&quot;hljs-attr&quot;&gt;&quot;namaBarang&quot;&lt;/span&gt;&lt;span class=&quot;hljs-punctuation&quot;&gt;:&lt;/span&gt; &lt;span class=&quot;hljs-string&quot;&gt;&quot;string&quot;&lt;/span&gt;&lt;span class=&quot;hljs-punctuation&quot;&gt;,&lt;/span&gt;&lt;br&gt;      &lt;span class=&quot;hljs-attr&quot;&gt;&quot;jumlah&quot;&lt;/span&gt;&lt;span class=&quot;hljs-punctuation&quot;&gt;:&lt;/span&gt; &lt;span class=&quot;hljs-string&quot;&gt;&quot;integer&quot;&lt;/span&gt;&lt;span class=&quot;hljs-punctuation&quot;&gt;,&lt;/span&gt;&lt;br&gt;      &lt;span class=&quot;hljs-attr&quot;&gt;&quot;tujuan&quot;&lt;/span&gt;&lt;span class=&quot;hljs-punctuation&quot;&gt;:&lt;/span&gt; &lt;span class=&quot;hljs-string&quot;&gt;&quot;string&quot;&lt;/span&gt;&lt;span class=&quot;hljs-punctuation&quot;&gt;,&lt;/span&gt;&lt;br&gt;      &lt;span class=&quot;hljs-attr&quot;&gt;&quot;tanggalKeluar&quot;&lt;/span&gt;&lt;span class=&quot;hljs-punctuation&quot;&gt;:&lt;/span&gt; &lt;span class=&quot;hljs-string&quot;&gt;&quot;string&quot;&lt;/span&gt;&lt;br&gt;    &lt;span class=&quot;hljs-punctuation&quot;&gt;}&lt;/span&gt;&lt;br&gt;  &lt;span class=&quot;hljs-punctuation&quot;&gt;]&lt;/span&gt;&lt;br&gt;&lt;span class=&quot;hljs-punctuation&quot;&gt;}&lt;/span&gt;" style="text;strokeColor=none;fillColor=none;align=left;verticalAlign=middle;spacingLeft=4;spacingRight=4;overflow=hidden;points=[[0,0.5],[1,0.5]];portConstraint=eastwest;rotatable=0;whiteSpace=wrap;html=1;" vertex="1" parent="IIk64PeaFXEYmDNorfwS-29">
          <mxGeometry y="90" width="320" height="150" as="geometry" />
        </mxCell>
        <mxCell id="IIk64PeaFXEYmDNorfwS-35" value="Get Semua Barang dan Stok" style="swimlane;fontStyle=0;childLayout=stackLayout;horizontal=1;startSize=30;horizontalStack=0;resizeParent=1;resizeParentMax=0;resizeLast=0;collapsible=1;marginBottom=0;whiteSpace=wrap;html=1;" vertex="1" parent="1">
          <mxGeometry x="400" y="840" width="320" height="210" as="geometry" />
        </mxCell>
        <mxCell id="IIk64PeaFXEYmDNorfwS-36" value="&lt;strong&gt;Method&lt;/strong&gt;: &lt;code&gt;GET&lt;/code&gt;" style="text;strokeColor=none;fillColor=none;align=left;verticalAlign=middle;spacingLeft=4;spacingRight=4;overflow=hidden;points=[[0,0.5],[1,0.5]];portConstraint=eastwest;rotatable=0;whiteSpace=wrap;html=1;" vertex="1" parent="IIk64PeaFXEYmDNorfwS-35">
          <mxGeometry y="30" width="320" height="20" as="geometry" />
        </mxCell>
        <mxCell id="IIk64PeaFXEYmDNorfwS-37" value="&lt;strong&gt;Endpoint&lt;/strong&gt;: &lt;code&gt;/api/barang/stok&lt;/code&gt;" style="text;strokeColor=none;fillColor=none;align=left;verticalAlign=middle;spacingLeft=4;spacingRight=4;overflow=hidden;points=[[0,0.5],[1,0.5]];portConstraint=eastwest;rotatable=0;whiteSpace=wrap;html=1;" vertex="1" parent="IIk64PeaFXEYmDNorfwS-35">
          <mxGeometry y="50" width="320" height="20" as="geometry" />
        </mxCell>
        <mxCell id="IIk64PeaFXEYmDNorfwS-38" value="&lt;strong&gt;Headers&lt;/strong&gt;: &lt;code&gt;{ &quot;Authorization&quot;: &quot;Bearer &amp;lt;token&amp;gt;&quot; }&lt;/code&gt;" style="text;strokeColor=none;fillColor=none;align=left;verticalAlign=middle;spacingLeft=4;spacingRight=4;overflow=hidden;points=[[0,0.5],[1,0.5]];portConstraint=eastwest;rotatable=0;whiteSpace=wrap;html=1;" vertex="1" parent="IIk64PeaFXEYmDNorfwS-35">
          <mxGeometry y="70" width="320" height="20" as="geometry" />
        </mxCell>
        <mxCell id="IIk64PeaFXEYmDNorfwS-39" value="&lt;span class=&quot;hljs-punctuation&quot;&gt;&lt;b&gt;Response :&amp;nbsp;&lt;/b&gt;&lt;/span&gt;&lt;span class=&quot;hljs-punctuation&quot;&gt;{&lt;/span&gt;&lt;br/&gt;  &lt;span class=&quot;hljs-attr&quot;&gt;&quot;data&quot;&lt;/span&gt;&lt;span class=&quot;hljs-punctuation&quot;&gt;:&lt;/span&gt; &lt;span class=&quot;hljs-punctuation&quot;&gt;[&lt;/span&gt;&lt;br/&gt;    &lt;span class=&quot;hljs-punctuation&quot;&gt;{&lt;/span&gt;&lt;br/&gt;      &lt;span class=&quot;hljs-attr&quot;&gt;&quot;namaBarang&quot;&lt;/span&gt;&lt;span class=&quot;hljs-punctuation&quot;&gt;:&lt;/span&gt; &lt;span class=&quot;hljs-string&quot;&gt;&quot;string&quot;&lt;/span&gt;&lt;span class=&quot;hljs-punctuation&quot;&gt;,&lt;/span&gt;&lt;br/&gt;      &lt;span class=&quot;hljs-attr&quot;&gt;&quot;stok&quot;&lt;/span&gt;&lt;span class=&quot;hljs-punctuation&quot;&gt;:&lt;/span&gt; &lt;span class=&quot;hljs-string&quot;&gt;&quot;integer&quot;&lt;/span&gt;&lt;span class=&quot;hljs-punctuation&quot;&gt;,&lt;/span&gt;&lt;br/&gt;      &lt;span class=&quot;hljs-attr&quot;&gt;&quot;stokMinimum&quot;&lt;/span&gt;&lt;span class=&quot;hljs-punctuation&quot;&gt;:&lt;/span&gt; &lt;span class=&quot;hljs-string&quot;&gt;&quot;integer&quot;&lt;/span&gt;&lt;br/&gt;    &lt;span class=&quot;hljs-punctuation&quot;&gt;}&lt;/span&gt;&lt;br/&gt;  &lt;span class=&quot;hljs-punctuation&quot;&gt;]&lt;/span&gt;&lt;br/&gt;&lt;span class=&quot;hljs-punctuation&quot;&gt;}&lt;/span&gt;" style="text;strokeColor=none;fillColor=none;align=left;verticalAlign=middle;spacingLeft=4;spacingRight=4;overflow=hidden;points=[[0,0.5],[1,0.5]];portConstraint=eastwest;rotatable=0;whiteSpace=wrap;html=1;" vertex="1" parent="IIk64PeaFXEYmDNorfwS-35">
          <mxGeometry y="90" width="320" height="120" as="geometry" />
        </mxCell>
      </root>
    </mxGraphModel>
  </diagram>
</mxfile>
